<svg width="18" height="15" viewBox="0 0 18 15" fill="none" xmlns="http://www.w3.org/2000/svg">
<path d="M1.95188 6.51821H13.302L9.32459 2.56922C8.88078 2.12853 8.87909 1.41236 9.32079 0.969579C9.7625 0.526742 10.4804 0.525102 10.9242 0.965733L16.8482 6.8476L16.8492 6.84867C17.2919 7.28936 17.2933 8.00785 16.8493 8.45001L16.8483 8.45108L10.9243 14.3329C10.4806 14.7735 9.76267 14.772 9.3209 14.3291C8.8792 13.8863 8.8809 13.1701 9.3247 12.7295L13.302 8.78047H1.95188C1.32572 8.78047 0.818142 8.27406 0.818142 7.64934C0.818142 7.02462 1.32572 6.51821 1.95188 6.51821Z" fill="white"/>
</svg>
