<svg width="22" height="22" viewBox="0 0 22 22" fill="none" xmlns="http://www.w3.org/2000/svg">
<path d="M2.06452 17.9173H7.57457V18.3629C7.57457 20.3686 9.20599 22 11.2117 22C13.2173 22 14.8488 20.3686 14.8488 18.3629V17.9173H20.3588C20.9469 17.9173 21.4233 17.4408 21.4233 16.8528C21.4233 16.2647 20.9469 15.7882 20.3588 15.7882H19.479V8.26732C19.479 3.70882 15.7702 0 11.2117 0C6.65316 0 2.94434 3.70882 2.94434 8.26732V15.7882H2.06452C1.47647 15.7882 1 16.2647 1 16.8528C1 17.4408 1.47647 17.9173 2.06452 17.9173ZM12.7197 18.3629C12.7197 19.1946 12.0433 19.871 11.2117 19.871C10.38 19.871 9.7036 19.1946 9.7036 18.3629V17.9173H12.7197V18.3629ZM5.07337 8.26732C5.07337 4.8825 7.82683 2.12903 11.2117 2.12903C14.5965 2.12903 17.35 4.8825 17.35 8.26732V15.7882H5.07337V8.26732Z" fill="white"/>
</svg>
