<svg width="82" height="20" viewBox="0 0 82 20" fill="none" xmlns="http://www.w3.org/2000/svg">
<path d="M0.544909 19.7344C0.367703 19.7344 0.225938 19.6724 0.119614 19.5485C0.0132905 19.4068 -0.0221508 19.2386 0.0132905 19.0438L3.68146 1.83267C3.7169 1.63789 3.81437 1.47853 3.97385 1.35458C4.15106 1.21293 4.32826 1.1421 4.50547 1.1421H12.081C14.491 1.1421 16.2631 1.69101 17.3972 2.78885C18.5491 3.88668 18.9123 5.41833 18.4871 7.3838C18.2212 8.62328 17.7073 9.67685 16.9454 10.5445C16.2011 11.4121 15.3239 12.0938 14.3138 12.5896L16.4137 18.8579C16.4315 18.911 16.4403 18.9641 16.4403 19.0173C16.458 19.0527 16.458 19.0969 16.4403 19.1501C16.4049 19.3094 16.3163 19.4511 16.1745 19.575C16.0505 19.6813 15.9087 19.7344 15.7492 19.7344H11.257C10.9203 19.7344 10.6811 19.6547 10.5393 19.4954C10.4153 19.3183 10.3356 19.1589 10.3001 19.0173L8.81158 13.5458H6.89776L5.72819 19.0438C5.69275 19.2386 5.58643 19.4068 5.40922 19.5485C5.24974 19.6724 5.07253 19.7344 4.8776 19.7344H0.544909ZM7.82809 9.16335H10.3533C10.9735 9.16335 11.4697 8.99513 11.8418 8.6587C12.2317 8.30456 12.4798 7.87074 12.5861 7.35724C12.6924 6.82603 12.6304 6.3745 12.4 6.00266C12.1874 5.63081 11.7621 5.44489 11.1241 5.44489H8.59894L7.82809 9.16335Z" fill="white"/>
<path d="M24.6181 20C23.1473 20 21.9157 19.7521 20.9234 19.2563C19.9487 18.7428 19.2754 17.9726 18.9032 16.9456C18.5311 15.9185 18.5045 14.6171 18.8235 13.0412C18.8412 12.9703 18.8589 12.8818 18.8766 12.7756C18.8944 12.6516 18.9121 12.5631 18.9298 12.51C19.2842 11.0403 19.869 9.8008 20.6841 8.7915C21.4993 7.7645 22.5005 6.98539 23.6878 6.45418C24.8751 5.92297 26.1953 5.65737 27.6484 5.65737C29.2787 5.65737 30.5545 5.98495 31.476 6.64011C32.4152 7.27756 33.0266 8.13634 33.3101 9.21647C33.6114 10.2789 33.6291 11.4741 33.3633 12.8021L33.2304 13.5458C33.1949 13.7229 33.0886 13.8822 32.9114 14.0239C32.7519 14.1656 32.5747 14.2364 32.3798 14.2364H24.1663C24.1663 14.2364 24.1574 14.2541 24.1397 14.2895C24.1397 14.3249 24.1397 14.3603 24.1397 14.3958C24.0511 14.8207 24.0245 15.2014 24.0599 15.5378C24.1131 15.8566 24.2371 16.1133 24.4321 16.3081C24.6447 16.4852 24.9282 16.5737 25.2827 16.5737C25.513 16.5737 25.7168 16.5383 25.894 16.4675C26.0712 16.3966 26.2307 16.3081 26.3725 16.2019C26.5142 16.0779 26.6471 15.9628 26.7712 15.8566C26.9661 15.6972 27.1167 15.5998 27.2231 15.5644C27.3471 15.5113 27.5066 15.4847 27.7015 15.4847H31.8747C32.0519 15.4847 32.1848 15.5378 32.2734 15.6441C32.362 15.7503 32.3798 15.8831 32.3266 16.0425C32.238 16.3612 32.0076 16.7508 31.6355 17.2112C31.2634 17.6538 30.7406 18.0877 30.0672 18.5126C29.4116 18.9376 28.623 19.2917 27.7015 19.575C26.78 19.8583 25.7522 20 24.6181 20ZM24.8042 11.2616H28.1268V11.2085C28.2331 10.7304 28.2509 10.3232 28.18 9.98672C28.1268 9.65029 27.9939 9.40239 27.7813 9.24303C27.5686 9.06596 27.2851 8.97742 26.9307 8.97742C26.5763 8.97742 26.2573 9.06596 25.9738 9.24303C25.6902 9.40239 25.451 9.65029 25.2561 9.98672C25.0789 10.3232 24.9282 10.7304 24.8042 11.2085V11.2616Z" fill="white"/>
<path d="M38.7561 20C37.9587 20 37.2321 19.8761 36.5765 19.6282C35.9208 19.3803 35.3892 18.9996 34.9816 18.4861C34.574 17.9726 34.2905 17.3262 34.131 16.5471C33.9892 15.768 34.007 14.8561 34.1842 13.8114C34.2551 13.4219 34.3171 13.0854 34.3702 12.8021C34.4411 12.5188 34.5209 12.1912 34.6095 11.8194C34.8576 10.8278 35.1854 9.95131 35.593 9.18991C36.0183 8.4108 36.5233 7.7645 37.1081 7.251C37.6929 6.73749 38.3397 6.34794 39.0485 6.08234C39.7573 5.79903 40.5193 5.65737 41.3344 5.65737C42.1496 5.65737 42.8761 5.79017 43.5141 6.05578C44.1697 6.30367 44.6659 6.64011 45.0026 7.06507L46.1456 1.56707C46.181 1.37229 46.2785 1.21293 46.438 1.08898C46.5975 0.947322 46.7747 0.876494 46.9696 0.876494H51.0631C51.2403 0.876494 51.382 0.947322 51.4884 1.08898C51.6124 1.21293 51.6567 1.37229 51.6213 1.56707L47.8999 19.0438C47.8645 19.2386 47.7582 19.4068 47.581 19.5485C47.4215 19.6724 47.2531 19.7344 47.0759 19.7344H43.3014C43.1242 19.7344 42.9736 19.6724 42.8496 19.5485C42.7432 19.4068 42.7078 19.2386 42.7432 19.0438L42.9027 18.3001C42.3711 18.8136 41.7863 19.2297 41.1484 19.5485C40.5282 19.8495 39.7307 20 38.7561 20ZM41.175 15.8566C41.6357 15.8566 42.0167 15.7592 42.3179 15.5644C42.6369 15.3696 42.8939 15.1129 43.0888 14.7942C43.3014 14.4754 43.4609 14.1213 43.5672 13.7317C43.6736 13.3422 43.7533 13.0058 43.8065 12.7224C43.8596 12.4214 43.9128 12.0938 43.966 11.7397C44.0368 11.3679 44.0368 11.0403 43.966 10.757C43.8951 10.4737 43.7445 10.2435 43.5141 10.0664C43.2837 9.88933 42.9559 9.8008 42.5306 9.8008C42.0876 9.8008 41.7066 9.89819 41.3876 10.093C41.0864 10.27 40.8383 10.5268 40.6433 10.8632C40.4661 11.1819 40.3155 11.5538 40.1915 11.9788C40.1206 12.2444 40.0497 12.5277 39.9788 12.8287C39.9079 13.1297 39.8548 13.413 39.8193 13.6786C39.7662 14.1036 39.7573 14.4843 39.7928 14.8207C39.8282 15.1394 39.9522 15.3962 40.1649 15.591C40.3953 15.768 40.7319 15.8566 41.175 15.8566Z" fill="white"/>
<path d="M50.9553 19.7344C50.7604 19.7344 50.6098 19.6724 50.5034 19.5485C50.3971 19.4068 50.3617 19.2386 50.3971 19.0438L53.0286 6.61355C53.0641 6.41877 53.1615 6.25941 53.321 6.13546C53.4982 5.9938 53.6843 5.92297 53.8792 5.92297H57.8132C58.0081 5.92297 58.1587 5.9938 58.2651 6.13546C58.3714 6.25941 58.4068 6.41877 58.3714 6.61355L55.7133 19.0438C55.6779 19.2386 55.5804 19.4068 55.4209 19.5485C55.2614 19.6724 55.0842 19.7344 54.8893 19.7344H50.9553ZM54.3045 4.19655C54.1096 4.19655 53.959 4.13457 53.8526 4.01062C53.7463 3.86897 53.7109 3.70075 53.7463 3.50598L54.3311 0.717132C54.3665 0.522355 54.464 0.354139 54.6235 0.212484C54.8007 0.0708279 54.9868 0 55.1817 0H59.0359C59.2131 0 59.3549 0.0708279 59.4612 0.212484C59.5675 0.354139 59.603 0.522355 59.5675 0.717132L58.9562 3.50598C58.9385 3.70075 58.841 3.86897 58.6638 4.01062C58.5043 4.13457 58.3271 4.19655 58.1322 4.19655H54.3045Z" fill="white"/>
<path d="M58.7215 19.7344C58.5266 19.7344 58.376 19.6724 58.2697 19.5485C58.1633 19.4068 58.1279 19.2386 58.1633 19.0438L60.7948 6.61355C60.8303 6.41877 60.9277 6.25941 61.0872 6.13546C61.2644 5.9938 61.4505 5.92297 61.6454 5.92297H65.287C65.482 5.92297 65.6237 5.9938 65.7123 6.13546C65.8186 6.25941 65.8541 6.41877 65.8186 6.61355L65.6326 7.49004C65.9161 7.20673 66.2351 6.92342 66.5895 6.64011C66.9616 6.3568 67.3958 6.1266 67.892 5.94953C68.4059 5.75476 69.0084 5.65737 69.6995 5.65737C70.745 5.65737 71.5778 5.861 72.1981 6.26826C72.8183 6.67552 73.2524 7.21558 73.5005 7.88845C74.0499 7.251 74.6701 6.71979 75.3612 6.29482C76.07 5.86985 76.894 5.65737 77.8332 5.65737C78.8256 5.65737 79.6585 5.86985 80.3318 6.29482C81.0229 6.70208 81.5103 7.33953 81.7938 8.20717C82.0773 9.05711 82.0685 10.1726 81.7672 11.5538L80.1724 19.0438C80.1369 19.2386 80.0394 19.4068 79.88 19.5485C79.7205 19.6724 79.5433 19.7344 79.3483 19.7344H75.4675C75.2726 19.7344 75.122 19.6724 75.0156 19.5485C74.9093 19.4068 74.8739 19.2386 74.9093 19.0438L76.4776 11.7131C76.5662 11.2528 76.5751 10.8898 76.5042 10.6242C76.451 10.3409 76.327 10.1372 76.132 10.0133C75.9371 9.87162 75.6802 9.8008 75.3612 9.8008C75.0954 9.8008 74.8296 9.87162 74.5638 10.0133C74.298 10.1372 74.0587 10.3409 73.8461 10.6242C73.6512 10.8898 73.5094 11.2528 73.4208 11.7131L71.8525 19.0438C71.8171 19.2386 71.7196 19.4068 71.5601 19.5485C71.4006 19.6724 71.2234 19.7344 71.0285 19.7344H67.1477C66.9528 19.7344 66.8021 19.6724 66.6958 19.5485C66.5895 19.4068 66.554 19.2386 66.5895 19.0438L68.1578 11.7131C68.2464 11.2528 68.2552 10.8898 68.1843 10.6242C68.1135 10.3409 67.9806 10.1372 67.7856 10.0133C67.5907 9.87162 67.3515 9.8008 67.0679 9.8008C66.7844 9.8008 66.5009 9.87162 66.2174 10.0133C65.9516 10.1549 65.7123 10.3586 65.4997 10.6242C65.3047 10.8898 65.163 11.2528 65.0744 11.7131L63.5061 19.0438C63.4707 19.2386 63.3732 19.4068 63.2137 19.5485C63.0542 19.6724 62.877 19.7344 62.6821 19.7344H58.7215Z" fill="white"/>
</svg>
