<svg width="14" height="14" viewBox="0 0 14 14" fill="none" xmlns="http://www.w3.org/2000/svg">
<path d="M13.4216 4.81096L9.40247 4.2013L7.60964 0.392223C7.49225 0.151226 7.25741 -7.62939e-06 7 -7.62939e-06C6.74259 -7.62939e-06 6.50775 0.151226 6.39036 0.392223L4.59753 4.2013L0.57839 4.81096C0.325472 4.84877 0.113238 5.03779 0.0319559 5.29301C-0.0448055 5.55293 0.0183947 5.83174 0.203561 6.02079L3.11181 8.98394L2.42538 13.1711C2.38023 13.4357 2.48409 13.7051 2.69633 13.8658C2.90407 14.0217 3.17953 14.0454 3.40985 13.9178L7 11.9423L10.5902 13.9178C10.6895 13.9745 10.7979 13.9981 10.9063 13.9981C11.0463 13.9981 11.1863 13.9556 11.3037 13.8658C11.5159 13.7051 11.6198 13.4357 11.5746 13.1711L10.8882 8.98394L13.7964 6.02079C13.9816 5.83174 14.0448 5.55293 13.968 5.29301C13.8868 5.03779 13.6745 4.84877 13.4216 4.81096Z" fill="#FF9900"/>
</svg>
